<?xml version="1.0"?>
<svg xmlns="http://www.w3.org/2000/svg" height="512px" viewBox="0 -35 512.00104 512" width="512px" class=""><g><path d="m504.503906 27.34375v398.144531c0 5.007813-4.0625 9.066407-9.070312 9.066407h-478.867188c-5.007812 0-9.070312-4.058594-9.070312-9.066407v-398.15625c0-10.953125 8.882812-19.835937 19.835937-19.835937h457.335938c10.949219 0 19.835937 8.886718 19.835937 19.847656zm0 0" fill="#fff" data-original="#FFF" class=""/><path d="m148.3125 218.582031-15.0625-62.933593h-30.117188l-15.058593 62.933593 15.058593 35.820313v180.152344h30.003907v-180.152344h.113281zm0 0" fill="#ffc850" data-original="#FFC850" class="active-path" style="fill:#FF8935" data-old_color="#ffc850"/><path d="m414.636719 288.296875c0-36.722656-19.570313-68.875-48.851563-86.59375-4.671875-2.824219-10.640625.480469-10.640625 5.9375v66.117187h-83.292969v-66.117187c0-5.457031-5.96875-8.761719-10.636718-5.9375-29.28125 17.71875-48.855469 49.871094-48.855469 86.59375 0 42.425781 26.128906 78.746094 63.167969 93.761719v52.496094h75.941406v-52.496094c37.039062-15.019532 63.167969-51.335938 63.167969-93.761719zm0 0" fill="#ffc850" data-original="#FFC850" class="active-path" style="fill:#FF8935" data-old_color="#ffc850"/><path d="m504.503906 27.34375v70.933594h-497.007812v-70.933594c0-10.960938 8.886718-19.847656 19.835937-19.847656h457.335938c10.949219 0 19.835937 8.886718 19.835937 19.847656zm0 0" fill="#e4eaf8" data-original="#E4EAF8" class=""/><path d="m504.5 82.410156h-497v-55.070312c0-10.957032 8.882812-19.839844 19.839844-19.839844h457.320312c10.957032 0 19.839844 8.882812 19.839844 19.839844zm0 0" fill="#abffdb" data-original="#ABFFDB" class="" style="fill:#280144" data-old_color="#abffdb"/><path d="m176.355469 427.054688h-159.789063c-.863281 0-1.566406-.703126-1.566406-1.566407v-398.148437c0-6.804688 5.535156-12.339844 12.339844-12.339844h106.351562c4.140625 0 7.5-3.355469 7.5-7.5 0-4.140625-3.359375-7.5-7.5-7.5h-106.351562c-15.074219 0-27.339844 12.265625-27.339844 27.339844v398.148437c0 9.136719 7.433594 16.566407 16.566406 16.566407h159.789063c4.144531 0 7.5-3.355469 7.5-7.5 0-4.140626-3.355469-7.5-7.5-7.5zm0 0" fill="#474d54" data-original="#474D54" class=""/><path d="m484.660156 0h-320.351562c-4.144532 0-7.5 3.359375-7.5 7.5 0 4.144531 3.355468 7.5 7.5 7.5h320.355468c6.800782 0 12.335938 5.535156 12.335938 12.339844v95.378906c0 4.140625 3.359375 7.5 7.5 7.5 4.144531 0 7.5-3.359375 7.5-7.5v-95.378906c0-15.074219-12.265625-27.339844-27.339844-27.339844zm0 0" fill="#474d54" data-original="#474D54" class=""/><path d="m313.269531 345.402344c-4.105469.121094-7.269531 3.703125-7.269531 7.808594v76.820312c0 4.140625 3.355469 7.5 7.5 7.5 4.140625 0 7.5-3.359375 7.5-7.5v-77.132812c0-4.21875-3.484375-7.625-7.730469-7.496094zm0 0" fill="#f9b428" data-original="#F9B428" class=""/><path d="m66.660156 46.339844c0 4.144531 3.355469 7.5 7.5 7.5h267.53125c4.144532 0 7.5-3.355469 7.5-7.5 0-4.140625-3.355468-7.5-7.5-7.5h-267.53125c-4.144531 0-7.5 3.359375-7.5 7.5zm0 0" fill="#fff" data-original="#FFF" class=""/><g fill="#48c397"><path d="m385.464844 45.605469v-1.300781c0-4.144532-3.355469-7.5-7.5-7.5-4.144532 0-7.5 3.355468-7.5 7.5v1.300781c0 4.144531 3.355468 7.5 7.5 7.5 4.144531 0 7.5-3.355469 7.5-7.5zm0 0" data-original="#48C397" class="" style="fill:#FF8935" data-old_color="#48C397"/><path d="m415.402344 45.605469v-1.300781c0-4.144532-3.359375-7.5-7.5-7.5-4.144532 0-7.5 3.355468-7.5 7.5v1.300781c0 4.144531 3.355468 7.5 7.5 7.5 4.140625 0 7.5-3.355469 7.5-7.5zm0 0" data-original="#48C397" class="" style="fill:#FF8935" data-old_color="#48C397"/><path d="m445.339844 45.605469v-1.300781c0-4.144532-3.355469-7.5-7.5-7.5-4.140625 0-7.5 3.355468-7.5 7.5v1.300781c0 4.144531 3.359375 7.5 7.5 7.5 4.144531 0 7.5-3.355469 7.5-7.5zm0 0" data-original="#48C397" class="" style="fill:#FF8935" data-old_color="#48C397"/></g><path d="m201.523438 184.519531h5.207031c4.140625 0 7.5-3.359375 7.5-7.5 0-4.144531-3.359375-7.503906-7.5-7.503906h-5.207031v-5.203125c0-4.144531-3.355469-7.5-7.5-7.5-4.144532 0-7.5 3.355469-7.5 7.5v5.203125h-5.207032c-4.140625 0-7.5 3.359375-7.5 7.503906 0 4.140625 3.359375 7.5 7.5 7.5h5.207032v5.203125c0 4.144532 3.355468 7.5 7.5 7.5 4.144531 0 7.5-3.355468 7.5-7.5zm0 0" fill="#abffdb" data-original="#ABFFDB" class="" style="fill:#280144" data-old_color="#abffdb"/><path d="m412.625 157.476562c-4.140625 0-7.5 3.355469-7.5 7.5v5.203126h-5.207031c-4.140625 0-7.5 3.359374-7.5 7.5 0 4.144531 3.359375 7.503906 7.5 7.503906h5.207031v5.203125c0 4.144531 3.359375 7.5 7.5 7.5 4.144531 0 7.5-3.355469 7.5-7.5v-5.203125h5.207031c4.140625 0 7.5-3.359375 7.5-7.503906 0-4.140626-3.359375-7.5-7.5-7.5h-5.207031v-5.203126c0-4.144531-3.355469-7.5-7.5-7.5zm0 0" fill="#abffdb" data-original="#ABFFDB" class="" style="fill:#280144" data-old_color="#abffdb"/><path d="m504.5 145.835938c-4.144531 0-7.5 3.355468-7.5 7.5v272.152343c0 .863281-.703125 1.566407-1.566406 1.566407h-288.457032c-4.144531 0-7.5 3.359374-7.5 7.5 0 4.144531 3.355469 7.5 7.5 7.5h288.457032c9.136718 0 16.566406-7.429688 16.566406-16.566407v-272.152343c0-4.144532-3.355469-7.5-7.5-7.5zm0 0" fill="#474d54" data-original="#474D54" class=""/></g> </svg>
