<?xml version="1.0"?>
<svg xmlns="http://www.w3.org/2000/svg" height="512px" viewBox="0 -24 512.001 512" width="512px" class=""><g><path d="m405.59375 178.371094h-298.953125c-11.648437 0-21.550781-8.636719-22.992187-20.195313-.3125-2.449219-.457032-4.953125-.433594-7.496093.273437-30.066407 24.710937-54.722657 54.769531-55.261719 6.144531-.113281 12.066406.773437 17.621094 2.496093 10.941406-51.65625 56.792969-90.410156 111.710937-90.410156 62.46875 0 113.222656 50.167969 114.179688 112.410156 3.871094-1.007812 7.984375-1.433593 12.234375-1.136718 17.4375 1.195312 33.425781 16.84375 34.945312 34.261718.015625.167969.03125.339844.046875.515626.992188 13.410156-9.683594 24.816406-23.128906 24.816406zm0 0" fill="#abffdb" data-original="#ABFFDB" class="active-path" style="fill:#FF8935" data-old_color="#abffdb"/><g fill="#474d54"><path d="m117.214844 107.375c.984375 0 1.984375-.195312 2.949218-.605469 5.714844-2.449219 11.753907-3.742187 17.957032-3.855469 5.191406-.101562 10.339844.632813 15.253906 2.164063 2.015625.625 4.203125.375 6.023438-.691406 1.820312-1.066407 3.105468-2.851563 3.542968-4.917969 10.371094-48.941406 54.265625-84.46875 104.375-84.46875 30.8125 0 60.117188 13.324219 80.402344 36.5625 2.722656 3.121094 7.460938 3.441406 10.582031.71875 3.117188-2.726562 3.4375-7.464844.714844-10.582031-23.132813-26.5-56.554687-41.699219-91.699219-41.699219-28.058594 0-55.4375 9.78125-77.101562 27.539062-19.355469 15.867188-33.40625 37.433594-40.109375 61.339844-4.019531-.714844-8.109375-1.03125-12.253907-.960937-8.148437.144531-16.085937 1.847656-23.589843 5.0625-3.808594 1.632812-5.574219 6.039062-3.945313 9.847656 1.21875 2.84375 3.988282 4.546875 6.898438 4.546875zm0 0" data-original="#474D54" class=""/><path d="m497.898438 421.027344v-96.855469c0-1.988281-.789063-3.894531-2.195313-5.304687l-92.1875-92.1875v-40.8125h2.074219c8.515625 0 16.722656-3.578126 22.515625-9.816407 5.769531-6.210937 8.71875-14.613281 8.09375-23.050781-.015625-.214844-.03125-.429688-.046875-.617188-1.855469-21.195312-20.652344-39.632812-41.90625-41.09375-1.898438-.128906-3.796875-.144531-5.675782-.039062-1.226562-14.5-5.007812-28.488281-11.273437-41.691406-1.777344-3.742188-6.253906-5.335938-9.992187-3.558594-3.742188 1.777344-5.335938 6.25-3.5625 9.992188 6.566406 13.828124 10.019531 28.644531 10.253906 44.039062.035156 2.304688 1.128906 4.464844 2.964844 5.855469 1.835937 1.398437 4.210937 1.867187 6.4375 1.28125 3.1875-.835938 6.488281-1.144531 9.820312-.914063 13.714844.941406 26.796875 13.761719 27.992188 27.460938l.03125.390625c.320312 4.355469-1.144532 8.523437-4.128907 11.734375-3.007812 3.242187-7.101562 5.027344-11.523437 5.027344h-298.949219c-7.894531 0-14.582031-5.855469-15.550781-13.621094-.269532-2.144532-.394532-4.328125-.371094-6.503906.089844-9.726563 3.113281-19.113282 8.75-27.144532 2.378906-3.390625 1.5625-8.066406-1.828125-10.445312-3.394531-2.378906-8.066406-1.5625-10.449219 1.828125-7.386718 10.523437-11.355468 22.84375-11.472656 35.625-.027344 2.839843.136719 5.695312.484375 8.5 1.90625 15.257812 14.992187 26.761719 30.4375 26.761719h1.84375v40.8125l-92.1875 92.1875c-1.40625 1.40625-2.195313 3.3125-2.195313 5.304687v96.855469c-8.261718 3.378906-14.101562 11.5-14.101562 20.960937 0 12.480469 10.15625 22.636719 22.636719 22.636719s22.636719-10.15625 22.636719-22.636719c0-10.238281-6.832032-18.902343-16.171876-21.691406v-93.019531l92.183594-92.183594c1.40625-1.410156 2.199219-3.316406 2.199219-5.304688v-43.921874h32.992187v63.347656l-45.796874 45.796875c-1.40625 1.410156-2.195313 3.316406-2.195313 5.304687v120.316406c-8.808594 3.101563-15.140625 11.5-15.140625 21.355469 0 12.480469 10.15625 22.636719 22.640625 22.636719 12.480469 0 22.636719-10.15625 22.636719-22.636719 0-9.855469-6.332032-18.253906-15.136719-21.355469v-117.210937l45.796875-45.796875c1.40625-1.40625 2.195312-3.316406 2.195312-5.304688v-66.453124h30.351563v234.765624c-8.804687 3.101563-15.136719 11.5-15.136719 21.355469 0 12.480469 10.15625 22.636719 22.636719 22.636719 9.855469 0 18.253906-6.332031 21.355469-15.136719h50.636718c3.101563 8.804688 11.5 15.136719 21.355469 15.136719 12.480469 0 22.636719-10.15625 22.636719-22.636719 0-9.839843-6.316406-18.230469-15.101562-21.34375.28125-19.355469.277343-38.261719-.039063-57.660156-.066406-4.144531-3.480469-7.476563-7.617187-7.378906-4.144532.066406-7.445313 3.480469-7.378907 7.621093.3125 19.308594.316407 38.125.035157 57.394532-6.476563 2.269531-11.613282 7.398437-13.890626 13.867187h-17.820312v-248.617187h31.710938c.285156 48.125.273437 96.628906-.039063 144.28125-.027344 4.140625 3.308594 7.519531 7.453125 7.546875h.050781c4.117188 0 7.46875-3.324219 7.496094-7.449219.3125-47.6875.324219-96.21875.042969-144.378906h30.308594v66.449218c0 1.988282.789062 3.898438 2.195312 5.304688l45.800781 45.800781v117.207031c-8.808593 3.101563-15.136719 11.5-15.136719 21.355469 0 12.480469 10.152344 22.636719 22.636719 22.636719 12.480469 0 22.636719-10.15625 22.636719-22.636719 0-9.855469-6.332031-18.253906-15.136719-21.355469v-120.316406c0-1.988281-.792969-3.894531-2.199219-5.304687l-45.796874-45.796875v-63.347656h32.996093v43.921874c0 1.988282.789063 3.894532 2.195313 5.304688l92.1875 92.183594v93.019531c-9.34375 2.789063-16.175782 11.453125-16.175782 21.691406 0 12.480469 10.15625 22.636719 22.636719 22.636719s22.636719-10.15625 22.636719-22.636719c0-9.460937-5.839844-17.582031-14.101562-20.960937zm-475.261719 28.597656c-4.210938 0-7.636719-3.425781-7.636719-7.636719 0-4.210937 3.425781-7.636719 7.636719-7.636719 4.210937 0 7.636719 3.425782 7.636719 7.636719 0 4.210938-3.425782 7.636719-7.636719 7.636719zm93.34375 0c-4.210938 0-7.636719-3.425781-7.636719-7.636719 0-4.210937 3.425781-7.636719 7.636719-7.636719 4.210937 0 7.636719 3.425782 7.636719 7.636719 0 4.210938-3.425782 7.636719-7.636719 7.636719zm280.039062 0c-4.210937 0-7.636719-3.425781-7.636719-7.636719 0-4.210937 3.425782-7.636719 7.636719-7.636719 4.210938 0 7.636719 3.425782 7.636719 7.636719 0 4.210938-3.425781 7.636719-7.636719 7.636719zm-186.691406 0c-4.210937 0-7.636719-3.425781-7.636719-7.636719 0-4.210937 3.425782-7.636719 7.636719-7.636719s7.636719 3.425782 7.636719 7.636719c0 4.210938-3.425782 7.636719-7.636719 7.636719zm93.34375-15.273438c4.210937 0 7.636719 3.425782 7.636719 7.636719 0 4.210938-3.425782 7.636719-7.636719 7.636719s-7.636719-3.425781-7.636719-7.636719c0-4.210937 3.425782-7.636719 7.636719-7.636719zm-54.171875.136719h-17.816406c-2.277344-6.457031-7.398438-11.582031-13.855469-13.855469v-234.761718h31.671875zm240.863281 15.136719c-4.210937 0-7.636719-3.425781-7.636719-7.636719 0-4.210937 3.425782-7.636719 7.636719-7.636719 4.210938 0 7.636719 3.425782 7.636719 7.636719 0 4.210938-3.425781 7.636719-7.636719 7.636719zm0 0" data-original="#474D54" class=""/><path d="m244.4375 69.882812v38.410157l-13.191406-13.195313c-2.929688-2.925781-7.679688-2.925781-10.605469.003906-2.929687 2.929688-2.929687 7.675782 0 10.605469l25.996094 25.996094c1.433593 1.433594 3.351562 2.195313 5.304687 2.195313.964844 0 1.941406-.1875 2.867188-.570313 2.804687-1.160156 4.632812-3.898437 4.632812-6.929687v-56.515626c0-4.140624-3.359375-7.5-7.5-7.5-4.144531 0-7.503906 3.359376-7.503906 7.5zm0 0" data-original="#474D54" class=""/><path d="m273.835938 62.957031c-2.804688 1.160157-4.628907 3.894531-4.628907 6.925781v56.519532c0 4.140625 3.355469 7.5 7.5 7.5 4.140625 0 7.5-3.359375 7.5-7.5v-38.410156l13.191407 13.191406c2.929687 2.929687 7.679687 2.929687 10.609374 0 2.925782-2.929688 2.925782-7.679688-.003906-10.605469l-25.996094-25.996094c-2.144531-2.148437-5.371093-2.789062-8.171874-1.625zm0 0" data-original="#474D54" class=""/></g></g> </svg>
