<?xml version="1.0"?>
<svg xmlns="http://www.w3.org/2000/svg" height="512px" viewBox="-102 0 512 512" width="512px" class=""><g><path d="m299.570312 34.785156v442.429688c0 15.070312-12.222656 27.285156-27.285156 27.285156h-237.5c-15.070312 0-27.285156-12.214844-27.285156-27.285156v-442.429688c0-15.070312 12.214844-27.285156 27.285156-27.285156h237.5c15.0625 0 27.285156 12.214844 27.285156 27.285156zm0 0" fill="#fff" data-original="#FFF" class=""/><path d="m299.570312 34.785156v52.433594h-292.070312v-52.433594c0-15.070312 12.214844-27.285156 27.285156-27.285156h237.5c15.0625 0 27.285156 12.214844 27.285156 27.285156zm0 0" fill="#e4eaf8" data-original="#E4EAF8" class=""/><path d="m299.570312 34.785156v38.230469h-292.070312v-38.230469c0-15.070312 12.214844-27.285156 27.285156-27.285156h237.5c15.0625 0 27.285156 12.214844 27.285156 27.285156zm0 0" fill="#ffc850" data-original="#FFC850" class="" style="fill:#EB7E30" data-old_color="#ffc850"/><path d="m299.570312 423.921875v53.292969c0 15.070312-12.222656 27.285156-27.285156 27.285156h-237.5c-15.070312 0-27.285156-12.214844-27.285156-27.285156v-53.292969zm0 0" fill="#e4eaf8" data-original="#E4EAF8" class=""/><path d="m299.570312 438.121094v39.09375c0 15.070312-12.222656 27.285156-27.285156 27.285156h-237.5c-15.070312 0-27.285156-12.214844-27.285156-27.285156v-39.09375zm0 0" fill="#ffc850" data-original="#FFC850" class="" style="fill:#EB7E30" data-old_color="#ffc850"/><path d="m178.007812 258.933594c1.332032 1.832031.382813 4.414062-1.8125 4.96875-4.886718 1.238281-11.65625 4.878906-11.949218 15.574218-.007813.242188-.007813.488282-.007813.730469l.839844 25.671875h-24.363281l.335937-25.671875c0-.242187 0-.488281-.011719-.730469-.289062-10.695312-7.0625-14.335937-11.949218-15.574218-2.195313-.554688-3.144532-3.136719-1.808594-4.96875l25.363281-34.871094zm0 0" fill="#dae0ea" data-original="#DAE0EA" class=""/><path d="m140.714844 305.882812.335937-25.675781c0-.242187 0-.484375-.011719-.730469h23.207032c-.007813.246094-.007813.488282-.007813.730469l.839844 25.675781zm0 0" fill="#e4eaf8" data-original="#E4EAF8" class=""/><path d="m175.019531 299.136719v138.984375h-42.96875v-138.984375c0-3.015625 2.445313-5.457031 5.457031-5.457031h32.054688c3.011719 0 5.457031 2.441406 5.457031 5.457031zm0 0" fill="#abffdb" data-original="#ABFFDB" class="" style="fill:#280144" data-old_color="#abffdb"/><path d="m132.050781 423.921875h42.96875v14.199219h-42.96875zm0 0" fill="#92e0c0" data-original="#92E0C0" class="active-path" data-old_color="#92e0c0" style="fill:#32005C"/><path d="m272.285156 0h-237.5c-19.179687 0-34.785156 15.605469-34.785156 34.785156v314.238282c0 4.140624 3.359375 7.5 7.5 7.5s7.5-3.359376 7.5-7.5v-314.238282c0-10.910156 8.875-19.785156 19.785156-19.785156h237.5c10.910156 0 19.785156 8.875 19.785156 19.785156v66.238282c0 4.140624 3.359376 7.5 7.5 7.5 4.144532 0 7.5-3.359376 7.5-7.5v-66.238282c0-19.179687-15.601562-34.785156-34.785156-34.785156zm0 0" fill="#474d54" data-original="#474D54" class=""/><path d="m299.570312 124.140625c-4.140624 0-7.5 3.359375-7.5 7.5v211.382813c0 4.140624 3.359376 7.5 7.5 7.5 4.144532 0 7.5-3.359376 7.5-7.5v-211.382813c0-4.140625-3.355468-7.5-7.5-7.5zm0 0" fill="#474d54" data-original="#474D54" class=""/><path d="m299.570312 366.140625c-4.140624 0-7.5 3.359375-7.5 7.5v103.574219c0 10.910156-8.875 19.785156-19.785156 19.785156h-237.5c-10.910156 0-19.785156-8.875-19.785156-19.785156v-97.574219c0-4.140625-3.359375-7.5-7.5-7.5s-7.5 3.359375-7.5 7.5v97.574219c0 19.179687 15.605469 34.785156 34.785156 34.785156h237.5c19.183594 0 34.785156-15.605469 34.785156-34.785156v-103.574219c0-4.140625-3.355468-7.5-7.5-7.5zm0 0" fill="#474d54" data-original="#474D54" class=""/><path d="m253.347656 195.871094c-7.960937 0-14.808594 4.851562-17.738281 11.757812h-164.148437c-2.929688-6.902344-9.777344-11.757812-17.734376-11.757812-10.621093 0-19.257812 8.636718-19.257812 19.257812 0 10.617188 8.636719 19.257813 19.257812 19.257813 7.957032 0 14.804688-4.855469 17.734376-11.757813h38.226562c-16.121094 12.46875-26.824219 31.625-27.878906 53.277344-6.949219 2.910156-11.847656 9.777344-11.847656 17.773438 0 10.617187 8.636718 19.257812 19.257812 19.257812 10.617188 0 19.257812-8.640625 19.257812-19.257812 0-7.914063-4.800781-14.726563-11.644531-17.683594 1.59375-26.449219 21.363281-48.066406 46.957031-52.511719l17.476563-.316406c26.566406 3.632812 47.339844 25.6875 48.972656 52.828125-6.839843 2.957031-11.644531 9.769531-11.644531 17.683594 0 10.617187 8.640625 19.257812 19.257812 19.257812 10.621094 0 19.257813-8.640625 19.257813-19.257812 0-7.996094-4.894531-14.863282-11.847656-17.773438-1.054688-21.652344-11.753907-40.808594-27.875-53.277344h38.222656c2.929687 6.902344 9.777344 11.757813 17.738281 11.757813 10.617188 0 19.257813-8.640625 19.257813-19.257813 0-10.621094-8.640625-19.257812-19.257813-19.257812zm-199.621094 23.515625c-2.347656 0-4.257812-1.910157-4.257812-4.257813s1.910156-4.257812 4.257812-4.257812c2.347657 0 4.257813 1.910156 4.257813 4.257812s-1.910156 4.257813-4.257813 4.257813zm35.492188 78.546875c-2.347656 0-4.257812-1.910156-4.257812-4.257813 0-2.347656 1.910156-4.257812 4.257812-4.257812s4.257812 1.910156 4.257812 4.257812c0 2.347657-1.910156 4.257813-4.257812 4.257813zm128.636719-8.515625c2.347656 0 4.257812 1.910156 4.257812 4.257812 0 2.347657-1.910156 4.257813-4.257812 4.257813-2.347657 0-4.257813-1.910156-4.257813-4.257813 0-2.347656 1.910156-4.257812 4.257813-4.257812zm35.492187-70.03125c-2.347656 0-4.257812-1.910157-4.257812-4.257813s1.910156-4.257812 4.257812-4.257812 4.257813 1.910156 4.257813 4.257812-1.910157 4.257813-4.257813 4.257813zm0 0" fill="#abb0b7" data-original="#ABB0B7" class=""/><path d="m126.152344 145.515625v-1.519531c0-4.140625-3.355469-7.5-7.5-7.5-4.140625 0-7.5 3.359375-7.5 7.5v1.519531c0 4.140625 3.359375 7.5 7.5 7.5 4.144531 0 7.5-3.359375 7.5-7.5zm0 0" fill="#abb0b7" data-original="#ABB0B7" class=""/><path d="m161.035156 145.515625v-1.519531c0-4.140625-3.355468-7.5-7.5-7.5-4.140625 0-7.5 3.359375-7.5 7.5v1.519531c0 4.140625 3.359375 7.5 7.5 7.5 4.144532 0 7.5-3.359375 7.5-7.5zm0 0" fill="#abb0b7" data-original="#ABB0B7" class=""/><path d="m195.917969 145.515625v-1.519531c0-4.140625-3.355469-7.5-7.5-7.5-4.140625 0-7.5 3.359375-7.5 7.5v1.519531c0 4.140625 3.359375 7.5 7.5 7.5 4.144531 0 7.5-3.359375 7.5-7.5zm0 0" fill="#abb0b7" data-original="#ABB0B7" class=""/><g fill="#474d54"><path d="m164.328125 32.757812h-75.933594c-4.140625 0-7.5 3.359376-7.5 7.5 0 4.140626 3.359375 7.5 7.5 7.5h75.933594c4.144531 0 7.5-3.359374 7.5-7.5 0-4.140624-3.355469-7.5-7.5-7.5zm0 0" data-original="#474D54" class=""/><path d="m218.675781 32c-4.140625 0-7.5 3.359375-7.5 7.5v1.519531c0 4.140625 3.359375 7.5 7.5 7.5s7.5-3.359375 7.5-7.5v-1.519531c0-4.144531-3.359375-7.5-7.5-7.5zm0 0" data-original="#474D54" class=""/><path d="m197.8125 32c-4.140625 0-7.5 3.359375-7.5 7.5v1.519531c0 4.140625 3.359375 7.5 7.5 7.5 4.144531 0 7.5-3.359375 7.5-7.5v-1.519531c0-4.144531-3.355469-7.5-7.5-7.5zm0 0" data-original="#474D54" class=""/><path d="m175.015625 463.8125h-42.960937c-4.144532 0-7.5 3.355469-7.5 7.5 0 4.140625 3.355468 7.5 7.5 7.5h42.960937c4.144531 0 7.5-3.359375 7.5-7.5 0-4.144531-3.355469-7.5-7.5-7.5zm0 0" data-original="#474D54" class=""/></g></g> </svg>
