<?xml version="1.0"?>
<svg xmlns="http://www.w3.org/2000/svg" height="512px" viewBox="1 -29 511.999 511" width="512px" class=""><g><path d="m159.613281 417.808594h-142.554687c-5.277344 0-9.558594-4.28125-9.558594-9.558594v-390.691406c0-5.277344 4.28125-9.558594 9.558594-9.558594h142.554687c5.28125 0 9.558594 4.28125 9.558594 9.558594v390.691406c0 5.277344-4.28125 9.558594-9.558594 9.558594zm0 0" fill="#abffdb" data-original="#ABFFDB" class="" style="fill:#FF8935" data-old_color="#abffdb"/><path d="m480.453125 17.558594v74.449218c0 3.917969-2.351563 7.269532-5.703125 8.757813-1.179688.519531-2.480469.804687-3.847656.804687h-244.449219c-5.285156 0-9.5625-4.277343-9.5625-9.5625v-74.449218c0-5.28125 4.277344-9.5625 9.5625-9.5625h244.445313c5.273437 0 9.554687 4.28125 9.554687 9.5625zm0 0" fill="#abffdb" data-original="#ABFFDB" class="" style="fill:#FF8935" data-old_color="#abffdb"/><path d="m474.75 100.765625c-1.179688.519531-2.480469.804687-3.847656.804687h-135.589844c19.390625-15.144531 43.777344-24.175781 70.238281-24.175781 25.984375 0 49.972657 8.714844 69.199219 23.371094zm0 0" fill="#92e0c0" data-original="#92E0C0" class="" style="fill:#280144" data-old_color="#92e0c0"/><path d="m320.414062 417.808594h-96.105468c-5.28125 0-9.5625-4.28125-9.5625-9.558594v-96.109375c0-5.277344 4.28125-9.558594 9.5625-9.558594h96.105468c5.28125 0 9.558594 4.28125 9.558594 9.558594v96.109375c0 5.277344-4.277344 9.558594-9.558594 9.558594zm0 0" fill="#ffc850" data-original="#FFC850" class="active-path" style="fill:#280144" data-old_color="#ffc850"/><path d="m470.898438 417.808594h-96.109376c-5.277343 0-9.558593-4.28125-9.558593-9.558594v-96.109375c0-5.277344 4.28125-9.558594 9.558593-9.558594h96.109376c5.277343 0 9.558593 4.28125 9.558593 9.558594v96.109375c0 5.277344-4.28125 9.558594-9.558593 9.558594zm0 0" fill="#ffc850" data-original="#FFC850" class="active-path" style="fill:#280144" data-old_color="#ffc850"/><path d="m457.183594 225.078125v213.847656c0 5.722657-6.683594 8.839844-11.070313 5.160157l-40.558593-34.054688-40.558594 34.054688c-4.386719 3.679687-11.070313.5625-11.070313-5.160157v-213.847656zm0 0" fill="#abffdb" data-original="#ABFFDB" class="" style="fill:#FF8935" data-old_color="#abffdb"/><path d="m457.183594 225.078125v68.757813c-15.519532 7.886718-33.066406 12.332031-51.628906 12.332031s-36.109376-4.445313-51.628907-12.332031v-68.757813zm0 0" fill="#92e0c0" data-original="#92E0C0" class="" style="fill:#280144" data-old_color="#92e0c0"/><path d="m504.5 191.785156c0 54.644532-44.300781 98.941406-98.945312 98.941406-54.644532 0-98.945313-44.296874-98.945313-98.941406 0-54.648437 44.300781-98.945312 98.945313-98.945312 54.644531 0 98.945312 44.296875 98.945312 98.945312zm0 0" fill="#ffc850" data-original="#FFC850" class="active-path" style="fill:#280144" data-old_color="#ffc850"/><path d="m472.640625 191.785156c0 37.046875-30.035156 67.082032-67.085937 67.082032-37.050782 0-67.082032-30.035157-67.082032-67.082032 0-37.050781 30.03125-67.085937 67.082032-67.085937 37.050781 0 67.085937 30.035156 67.085937 67.085937zm0 0" fill="#fff" data-original="#FFF" class=""/><path d="m159.613281.5h-142.554687c-9.40625 0-17.058594 7.652344-17.058594 17.058594v169.636718c0 4.140626 3.359375 7.5 7.5 7.5s7.5-3.359374 7.5-7.5v-169.636718c0-1.136719.925781-2.058594 2.058594-2.058594h142.554687c1.136719 0 2.058594.921875 2.058594 2.058594v390.691406c0 1.132812-.921875 2.058594-2.058594 2.058594h-142.554687c-1.132813 0-2.058594-.925782-2.058594-2.058594v-190.4375c0-4.144531-3.359375-7.5-7.5-7.5s-7.5 3.355469-7.5 7.5v190.4375c0 9.40625 7.652344 17.058594 17.058594 17.058594h142.554687c9.40625 0 17.058594-7.652344 17.058594-17.058594v-390.691406c0-9.40625-7.652344-17.058594-17.058594-17.058594zm0 0" fill="#474d54" data-original="#474D54" class=""/><path d="m320.414062 295.082031h-96.105468c-9.410156 0-17.0625 7.652344-17.0625 17.058594v96.109375c0 9.40625 7.652344 17.058594 17.0625 17.058594h53.382812c4.144532 0 7.5-3.359375 7.5-7.5s-3.355468-7.5-7.5-7.5h-53.382812c-1.136719 0-2.0625-.925782-2.0625-2.058594v-96.109375c0-1.136719.925781-2.058594 2.0625-2.058594h96.105468c1.136719 0 2.058594.921875 2.058594 2.058594v96.109375c0 1.132812-.921875 2.058594-2.058594 2.058594h-12.105468c-4.144532 0-7.5 3.359375-7.5 7.5s3.355468 7.5 7.5 7.5h12.105468c9.40625 0 17.058594-7.652344 17.058594-17.058594v-96.109375c0-9.40625-7.652344-17.058594-17.058594-17.058594zm0 0" fill="#474d54" data-original="#474D54" class=""/><path d="m470.894531 295.082031h-6.214843v-14.828125c28.511718-19.117187 47.320312-51.636718 47.320312-88.46875 0-33.402344-15.472656-63.257812-39.617188-82.785156 8.710938-.757812 15.570313-8.082031 15.570313-16.984375v-74.457031c0-9.40625-7.652344-17.058594-17.058594-17.058594h-179.25c-4.144531 0-7.5 3.359375-7.5 7.5s3.355469 7.5 7.5 7.5h179.253907c1.132812 0 2.058593.921875 2.058593 2.058594v74.457031c0 1.136719-.925781 2.058594-2.058593 2.058594h-21.835938c-.375 0-.738281.035156-1.09375.089843-13.003906-5.671874-27.347656-8.824218-42.410156-8.824218-15.074219 0-29.417969 3.15625-42.425782 8.828125-.367187-.054688-.746093-.09375-1.128906-.09375h-135.554687c-1.136719 0-2.058594-.921875-2.058594-2.058594v-74.457031c0-1.136719.921875-2.058594 2.058594-2.058594h34.574219c4.144531 0 7.5-3.359375 7.5-7.5s-3.355469-7.5-7.5-7.5h-34.574219c-9.40625 0-17.058594 7.652344-17.058594 17.058594v74.457031c0 9.40625 7.652344 17.058594 17.058594 17.058594h112.183593c-8.761718 7.101562-16.375 15.5625-22.519531 25.0625h-99.222656c-4.144531 0-7.5 3.355469-7.5 7.5 0 4.140625 3.355469 7.5 7.5 7.5h91.148437c-3.566406 8.121093-6.148437 16.769531-7.589843 25.796875h-83.558594c-4.144531 0-7.5 3.355468-7.5 7.5 0 4.140625 3.355469 7.5 7.5 7.5h82.242187c-.011718.617187-.023437 1.230468-.023437 1.851562 0 8.230469.941406 16.246094 2.714844 23.945313h-84.933594c-4.144531 0-7.5 3.355469-7.5 7.5 0 4.140625 3.355469 7.5 7.5 7.5h89.597656c3.671875 9.308593 8.628907 17.976562 14.636719 25.796875h-104.234375c-4.144531 0-7.5 3.355468-7.5 7.5 0 4.140625 3.355469 7.5 7.5 7.5h118.238281c3.5625 3.152344 7.335938 6.070312 11.300782 8.726562v158.671875c0 5.59375 3.152343 10.539063 8.222656 12.902344 1.953125.910156 4.011718 1.355469 6.050781 1.355469 3.269531 0 6.484375-1.140625 9.117187-3.355469l35.734376-30.003906 35.730468 30.003906c4.285156 3.597656 10.101563 4.363281 15.171875 2 5.070313-2.363281 8.222657-7.308594 8.222657-12.902344v-13.617187h6.214843c9.40625 0 17.0625-7.652344 17.0625-17.058594v-96.105469c0-9.410156-7.652343-17.0625-17.0625-17.0625zm-65.339843-194.742187c50.425781 0 91.445312 41.023437 91.445312 91.445312s-41.019531 91.441406-91.445312 91.441406c-50.421876 0-91.445313-41.019531-91.445313-91.441406s41.023437-91.445312 91.445313-91.445312zm4.824218 303.949218c-2.789062-2.339843-6.855468-2.34375-9.644531 0l-39.304687 32.996094v-148.644531c13.449218 6.152344 28.394531 9.585937 44.125 9.585937 15.730468 0 30.675781-3.433593 44.125-9.582031v148.640625zm62.578125 3.960938c0 1.132812-.925781 2.058594-2.0625 2.058594h-6.214843v-100.226563h6.214843c1.136719 0 2.0625.925781 2.0625 2.058594zm0 0" fill="#474d54" data-original="#474D54" class=""/><g fill="#48c397"><path d="m318.703125 56.285156v-1.160156c0-4.140625-3.359375-7.5-7.5-7.5-4.144531 0-7.5 3.359375-7.5 7.5v1.160156c0 4.140625 3.355469 7.5 7.5 7.5 4.140625 0 7.5-3.359375 7.5-7.5zm0 0" data-original="#48C397" class="" data-old_color="#48C397" style="fill:#280144"/><path d="m356.171875 56.285156v-1.160156c0-4.140625-3.355469-7.5-7.5-7.5-4.140625 0-7.5 3.359375-7.5 7.5v1.160156c0 4.140625 3.359375 7.5 7.5 7.5 4.144531 0 7.5-3.359375 7.5-7.5zm0 0" data-original="#48C397" class="" data-old_color="#48C397" style="fill:#280144"/><path d="m393.644531 56.285156v-1.160156c0-4.140625-3.359375-7.5-7.5-7.5-4.144531 0-7.5 3.359375-7.5 7.5v1.160156c0 4.140625 3.355469 7.5 7.5 7.5 4.140625 0 7.5-3.359375 7.5-7.5zm0 0" data-original="#48C397" class="" data-old_color="#48C397" style="fill:#280144"/><path d="m58.578125 76.078125c1.464844 1.460937 3.386719 2.195313 5.304687 2.195313 1.917969 0 3.839844-.730469 5.304688-2.195313 2.925781-2.929687 2.925781-7.679687 0-10.609375l-14.1875-14.183594c-2.929688-2.929687-7.679688-2.929687-10.605469 0-2.929687 2.925782-2.929687 7.675782 0 10.605469zm0 0" data-original="#48C397" class="" data-old_color="#48C397" style="fill:#280144"/><path d="m44.394531 99.785156 14.183594 14.1875c1.464844 1.460938 3.386719 2.195313 5.304687 2.195313 1.917969 0 3.839844-.730469 5.304688-2.195313 2.925781-2.929687 2.925781-7.679687 0-10.605468l-14.1875-14.191407c-2.929688-2.925781-7.679688-2.925781-10.605469 0-2.929687 2.929688-2.929687 7.679688 0 10.609375zm0 0" data-original="#48C397" class="" data-old_color="#48C397" style="fill:#280144"/><path d="m44.394531 137.679688 14.183594 14.1875c1.464844 1.464843 3.386719 2.195312 5.304687 2.195312 1.917969 0 3.839844-.730469 5.304688-2.195312 2.925781-2.929688 2.925781-7.675782 0-10.605469l-14.1875-14.1875c-2.929688-2.933594-7.679688-2.929688-10.605469 0-2.929687 2.925781-2.929687 7.675781 0 10.605469zm0 0" data-original="#48C397" class="" data-old_color="#48C397" style="fill:#280144"/><path d="m42.195312 380.230469c0 4.140625 3.359376 7.5 7.5 7.5h72.105469c4.140625 0 7.5-3.359375 7.5-7.5 0-4.144531-3.359375-7.5-7.5-7.5h-72.105469c-4.140624 0-7.5 3.355469-7.5 7.5zm0 0" data-original="#48C397" class="" data-old_color="#48C397" style="fill:#280144"/></g><path d="m396.546875 172.480469 1.507813-1.507813v49.144532h-5.679688c-4.144531 0-7.5 3.359374-7.5 7.5 0 4.144531 3.355469 7.5 7.5 7.5h26.574219c4.144531 0 7.5-3.355469 7.5-7.5 0-4.140626-3.355469-7.5-7.5-7.5h-5.894531v-67.25c0-3.035157-1.828126-5.769532-4.628907-6.929688-2.804687-1.160156-6.027343-.519531-8.171875 1.625l-14.3125 14.3125c-2.929687 2.929688-2.929687 7.675781-.003906 10.605469 2.933594 2.929687 7.679688 2.929687 10.609375 0zm0 0" fill="#ffc850" data-original="#FFC850" class="active-path" style="fill:#280144" data-old_color="#ffc850"/><path d="m90.179688 268.363281c-2.804688-1.160156-6.03125-.519531-8.171876 1.625l-14.3125 14.3125c-2.929687 2.929688-2.929687 7.675781 0 10.605469 2.925782 2.929688 7.675782 2.929688 10.605469 0l1.507813-1.507812v49.144531h-5.679688c-4.144531 0-7.5 3.359375-7.5 7.5 0 4.144531 3.355469 7.5 7.5 7.5h25.472656c4.140626 0 7.5-3.355469 7.5-7.5 0-4.140625-3.359374-7.5-7.5-7.5h-4.792968v-67.25c0-3.035157-1.828125-5.769531-4.628906-6.929688zm0 0" fill="#48c397" data-original="#48C397" class="" data-old_color="#48c397" style="fill:#280144"/></g> </svg>
