<?xml version="1.0" encoding="utf-8"?>
<!-- Generator: Adobe Illustrator 22.0.0, SVG Export Plug-In . SVG Version: 6.00 Build 0)  -->
<svg version="1.1" xmlns="http://www.w3.org/2000/svg" xmlns:xlink="http://www.w3.org/1999/xlink" x="0px" y="0px"
	 viewBox="0 0 100 100" style="enable-background:new 0 0 100 100;" xml:space="preserve">
<style type="text/css">
	.st0{display:none;}
	.st1{display:inline;fill:url(#SVGID_1_);}
	.st2{display:inline;fill:#FFFFFF;}
	.st3{display:inline;fill:#130A17;}
	.st4{display:none;fill:#130A17;}
	.st5{fill:#FFFFFF;}
	.st6{fill:url(#SVGID_2_);}
	.st7{fill:#130A17;}
</style>
<g id="Capa_1">
	<g class="st0">
		<linearGradient id="SVGID_1_" gradientUnits="userSpaceOnUse" x1="1" y1="50" x2="99" y2="50">
			<stop  offset="0" style="stop-color:#391E45"/>
			<stop  offset="1" style="stop-color:#130A17"/>
		</linearGradient>
		<path class="st1" d="M50,1C22.9,1,1,22.9,1,50c0,1.8,0.1,3.6,0.3,5.4c10.9-8.8,23.8-18.8,23.8-18.8l12.4-8.4c0,0,2.3-1.8,6.9-0.4
			l6-4.8c0,0,1.3-1.2,3.3-1.6c2-0.4,16.9-4.4,16.9-4.4s1-0.2,0.3,0.3c-0.2,0.2-0.5,0.5-1,0.9c-2.3,1.8-18.7,14.8-18.7,14.8
			s-2.9,1.7-1.2,1.4c1.7-0.2,24.1-0.5,24.1-0.5s2.6-0.2-0.7,1c-3.3,1.2-19.5,7.2-19.5,7.2s-3,0.9-4,1.3c-1.7,0.6-2.6,0.9-5.5,4.5
			c-3.2,3.8-9.7,12.4-16,30.1c-1.5,4.2-2.7,8.7-4.1,13.5C31.7,96.3,40.5,99,50,99c27.1,0,49-21.9,49-49S77.1,1,50,1z"/>
		<path class="st2" d="M50,34.5c-1.7,0.2,1.2-1.4,1.2-1.4s16.4-13.1,18.7-14.8c0.5-0.4,0.8-0.7,1-0.9c0.7-0.6-0.3-0.3-0.3-0.3
			s-15,4-16.9,4.4c-2,0.4-3.3,1.6-3.3,1.6l-6,4.8c-4.6-1.4-6.9,0.4-6.9,0.4l-12.4,8.4c0,0-12.9,10-23.8,18.8
			C3,70.7,11.7,83.9,24.2,91.7c1.3-4.8,2.6-9.3,4.1-13.5c6.3-17.7,12.9-26.3,16-30.1c3-3.6,3.9-4,5.5-4.5c1-0.3,4-1.3,4-1.3
			s1.5-0.5,3.6-1.3L74,34C68.5,34.1,50.8,34.4,50,34.5z"/>
		<circle class="st3" cx="41.4" cy="34" r="2.3"/>
		<circle class="st2" cx="41.4" cy="34" r="0.8"/>
	</g>
	<circle class="st4" cx="50" cy="50" r="49"/>
	<g>
		<path class="st5" d="M50,24.6C36,24.6,24.6,36,24.6,50S36,75.4,50,75.4S75.4,64,75.4,50S64,24.6,50,24.6z M50,67.7
			c-9.8,0-17.7-7.9-17.7-17.7S40.2,32.3,50,32.3S67.7,40.2,67.7,50S59.8,67.7,50,67.7z"/>
		<rect x="7.5" y="45.9" class="st5" width="17.7" height="8.3"/>
		<rect x="74.8" y="45.9" class="st5" width="17.7" height="8.3"/>
	</g>
</g>
<g id="Capa_2">
	<linearGradient id="SVGID_2_" gradientUnits="userSpaceOnUse" x1="6.734808e-09" y1="155" x2="100" y2="155">
		<stop  offset="0" style="stop-color:#391E45"/>
		<stop  offset="1" style="stop-color:#130A17"/>
	</linearGradient>
	<rect x="0" y="105" class="st6" width="100" height="100"/>
	<circle class="st5" cx="50" cy="155" r="49"/>
	<g>
		<path class="st7" d="M50,129.6c-14,0-25.4,11.4-25.4,25.4S36,180.4,50,180.4S75.4,169,75.4,155S64,129.6,50,129.6z M50,172.7
			c-9.8,0-17.7-7.9-17.7-17.7s7.9-17.7,17.7-17.7s17.7,7.9,17.7,17.7S59.8,172.7,50,172.7z"/>
		<rect x="7.5" y="150.9" class="st7" width="17.7" height="8.3"/>
		<rect x="74.8" y="150.9" class="st7" width="17.7" height="8.3"/>
	</g>
</g>
</svg>
