<?xml version="1.0" encoding="utf-8"?>
<!-- Generator: Adobe Illustrator 22.0.0, SVG Export Plug-In . SVG Version: 6.00 Build 0)  -->
<svg version="1.1" xmlns="http://www.w3.org/2000/svg" xmlns:xlink="http://www.w3.org/1999/xlink" x="0px" y="0px"
	 viewBox="0 0 100 101" style="enable-background:new 0 0 100 101;" xml:space="preserve">
<style type="text/css">
	.st0{fill:url(#SVGID_1_);}
	.st1{fill:#FFFFFF;}
	.st2{fill:#130A17;}
	.st3{display:none;fill:#FFFFFF;}
	.st4{display:none;fill:#130A17;}
	.st5{display:none;fill:url(#SVGID_2_);}
</style>
<g id="Capa_1">
	<g>
		<linearGradient id="SVGID_1_" gradientUnits="userSpaceOnUse" x1="1" y1="-160" x2="99" y2="-160">
			<stop  offset="0" style="stop-color:#391E45"/>
			<stop  offset="1" style="stop-color:#130A17"/>
		</linearGradient>
		<path class="st0" d="M50-209c-27.1,0-49,21.9-49,49c0,1.8,0.1,3.6,0.3,5.4c10.9-8.8,23.8-18.8,23.8-18.8l12.4-8.4
			c0,0,2.3-1.8,6.9-0.4l6-4.8c0,0,1.3-1.2,3.3-1.6c2-0.4,16.9-4.4,16.9-4.4s1-0.2,0.3,0.3c-0.2,0.2-0.5,0.5-1,0.9
			c-2.3,1.8-18.7,14.8-18.7,14.8s-2.9,1.7-1.2,1.4c1.7-0.2,24.1-0.5,24.1-0.5s2.6-0.2-0.7,1c-3.3,1.2-19.5,7.2-19.5,7.2
			s-3,0.9-4,1.3c-1.7,0.6-2.6,0.9-5.5,4.5c-3.2,3.8-9.7,12.4-16,30.1c-1.5,4.2-2.7,8.7-4.1,13.5c7.5,4.6,16.3,7.3,25.8,7.3
			c27.1,0,49-21.9,49-49S77.1-209,50-209z"/>
		<path class="st1" d="M50-175.5c-1.7,0.2,1.2-1.4,1.2-1.4s16.4-13.1,18.7-14.8c0.5-0.4,0.8-0.7,1-0.9c0.7-0.6-0.3-0.3-0.3-0.3
			s-15,4-16.9,4.4c-2,0.4-3.3,1.6-3.3,1.6l-6,4.8c-4.6-1.4-6.9,0.4-6.9,0.4l-12.4,8.4c0,0-12.9,10-23.8,18.8
			c1.7,15.3,10.4,28.5,22.9,36.3c1.3-4.8,2.6-9.3,4.1-13.5c6.3-17.7,12.9-26.3,16-30.1c3-3.6,3.9-4,5.5-4.5c1-0.3,4-1.3,4-1.3
			s1.5-0.5,3.6-1.3L74-176C68.5-175.9,50.8-175.6,50-175.5z"/>
		<circle class="st2" cx="41.4" cy="-176" r="2.3"/>
		<circle class="st1" cx="41.4" cy="-176" r="0.8"/>
	</g>
	<path class="st3" d="M50-104C22.9-104,1-82.1,1-55c0,1.8,0.1,3.6,0.3,5.4c10.9-8.8,23.8-18.8,23.8-18.8l12.4-8.4
		c0,0,2.3-1.8,6.9-0.4l6-4.8c0,0,1.3-1.2,3.3-1.6c2-0.4,16.9-4.4,16.9-4.4s1-0.2,0.3,0.3c-0.2,0.2-0.5,0.5-1,0.9
		c-2.3,1.8-18.7,14.8-18.7,14.8s-2.9,1.7-1.2,1.4c1.7-0.2,24.1-0.5,24.1-0.5s2.6-0.2-0.7,1c-3.3,1.2-19.5,7.2-19.5,7.2s-3,0.9-4,1.3
		c-1.7,0.6-2.6,0.9-5.5,4.5c-3.2,3.8-9.7,12.4-16,30.1c-1.5,4.2-2.7,8.7-4.1,13.5C31.7-8.7,40.5-6,50-6c27.1,0,49-21.9,49-49
		S77.1-104,50-104z"/>
	<path class="st4" d="M50-70.5c-1.7,0.2,1.2-1.4,1.2-1.4s16.4-13.1,18.7-14.8c0.5-0.4,0.8-0.7,1-0.9c0.7-0.6-0.3-0.3-0.3-0.3
		s-15,4-16.9,4.4c-2,0.4-3.3,1.6-3.3,1.6l-6,4.8c-4.6-1.4-6.9,0.4-6.9,0.4l-12.4,8.4c0,0-12.9,10-23.8,18.8
		C3-34.3,11.7-21.1,24.2-13.3c1.3-4.8,2.6-9.3,4.1-13.5c6.3-17.7,12.9-26.3,16-30.1c3-3.6,3.9-4,5.5-4.5c1-0.3,4-1.3,4-1.3
		s1.5-0.5,3.6-1.3L74-71C68.5-70.9,50.8-70.6,50-70.5z"/>
	<circle class="st3" cx="41.4" cy="-71" r="2.3"/>
	<circle class="st4" cx="41.4" cy="-71" r="0.8"/>
</g>
<g id="Capa_2">
	<linearGradient id="SVGID_2_" gradientUnits="userSpaceOnUse" x1="6.734808e-09" y1="-55" x2="100" y2="-55">
		<stop  offset="0" style="stop-color:#391E45"/>
		<stop  offset="1" style="stop-color:#130A17"/>
	</linearGradient>
	<rect x="0" y="-105" class="st5" width="100" height="100"/>
	<circle class="st1" cx="50" cy="-55" r="49"/>
	<g>
		<path class="st2" d="M50-80.4C36-80.4,24.6-69,24.6-55S36-29.6,50-29.6S75.4-41,75.4-55S64-80.4,50-80.4z M50-37.3
			c-9.8,0-17.7-7.9-17.7-17.7S40.2-72.7,50-72.7S67.7-64.8,67.7-55S59.8-37.3,50-37.3z"/>
		<rect x="7.5" y="-59.1" class="st2" width="17.7" height="8.3"/>
		<rect x="74.8" y="-59.1" class="st2" width="17.7" height="8.3"/>
	</g>
</g>
<g id="Capa_3">
	<circle class="st2" cx="50" cy="50.5" r="49"/>
	<g>
		<path class="st1" d="M50,25.1c-14,0-25.4,11.4-25.4,25.4S36,75.9,50,75.9s25.4-11.4,25.4-25.4S64,25.1,50,25.1z M50,68.2
			c-9.8,0-17.7-7.9-17.7-17.7S40.2,32.8,50,32.8s17.7,7.9,17.7,17.7S59.8,68.2,50,68.2z"/>
		<rect x="7.5" y="46.4" class="st1" width="17.7" height="8.3"/>
		<rect x="74.8" y="46.4" class="st1" width="17.7" height="8.3"/>
	</g>
</g>
</svg>
