<?xml version="1.0" encoding="utf-8"?>
<!-- Generator: Adobe Illustrator 22.0.0, SVG Export Plug-In . SVG Version: 6.00 Build 0)  -->
<svg version="1.1" id="Capa_1" xmlns="http://www.w3.org/2000/svg" xmlns:xlink="http://www.w3.org/1999/xlink" x="0px" y="0px"
	 viewBox="0 0 248.5 85" style="enable-background:new 0 0 248.5 85;" xml:space="preserve">
<style type="text/css">
	.st0{fill:#130A17;}
	.st1{fill:url(#SVGID_1_);}
	.st2{fill:#FFFFFF;}
	.st3{display:none;fill:#130A17;}
</style>
<g>
	<path class="st0" d="M40-53.3v26.5H25.5v-26.6l-22.9-39h15.1l15.2,26.3L48-92.4h15.1L40-53.3z"/>
	<path class="st0" d="M136-77.4l-16.5,50.6h-11L97-53L85.7-26.8h-11L58-77.4h13.9l10,30.2L95-77.1h3.9l13.6,29.9l9.9-30.3H136z"/>
	<path class="st0" d="M186.8-52.3c0,1.3-0.1,2.7-0.3,4h-38.3c1.2,6.9,5.7,10.7,12.4,10.7c4.8,0,8.7-2.2,10.7-5.9h14.4
		c-3.7,11-13.4,18.1-25.1,18.1c-14.9,0-26.3-11.6-26.3-26.7c0-15.2,11.2-26.7,26.3-26.7C176.2-78.8,186.8-66.9,186.8-52.3
		L186.8-52.3z M148.6-57.6h24.5c-1.9-6.2-6.4-9.5-12.5-9.5C154.5-67.2,150.2-63.6,148.6-57.6z"/>
	<path class="st0" d="M246.1-52.1c0,15.3-11.2,26.7-26.6,26.7c-6.1,0-11.6-2.1-15.8-5.7l-1.6,4.2h-10.1v-68.9h13.7v21
		c3.9-2.7,8.6-4.2,13.9-4.2C234.9-78.8,246.1-67.4,246.1-52.1z M218.3-38.3c7.9,0,13.8-5.9,13.8-13.8c0-7.9-5.8-13.9-13.8-13.9
		s-13.8,5.9-13.8,13.9C204.5-44.3,210.4-38.3,218.3-38.3L218.3-38.3z"/>
</g>
<g>
	<linearGradient id="SVGID_1_" gradientUnits="userSpaceOnUse" x1="-79.3791" y1="-60.5" x2="-4.3791" y2="-60.5">
		<stop  offset="0" style="stop-color:#391E45"/>
		<stop  offset="1" style="stop-color:#130A17"/>
	</linearGradient>
	<path class="st1" d="M-41.9-98c-20.7,0-37.5,16.8-37.5,37.5c0,1.4,0.1,2.8,0.2,4.1c8.4-6.7,18.2-14.4,18.2-14.4l9.5-6.4
		c0,0,1.8-1.4,5.3-0.3l4.6-3.6c0,0,1-0.9,2.5-1.3c1.5-0.3,13-3.4,13-3.4s0.7-0.2,0.2,0.3c-0.2,0.1-0.4,0.4-0.8,0.7
		C-28.4-83.4-41-73.4-41-73.4s-2.3,1.3-0.9,1.1c1.3-0.2,18.5-0.4,18.5-0.4s2-0.1-0.5,0.8c-2.5,0.9-15,5.5-15,5.5s-2.3,0.7-3.1,1
		c-1.3,0.4-2,0.7-4.2,3.5c-2.4,2.9-7.4,9.5-12.3,23.1c-1.1,3.2-2.1,6.7-3.1,10.3c5.7,3.5,12.5,5.6,19.7,5.6
		c20.7,0,37.5-16.8,37.5-37.5S-21.2-98-41.9-98z"/>
	<path class="st2" d="M-41.9-72.3c-1.3,0.2,0.9-1.1,0.9-1.1s12.5-10,14.3-11.4c0.4-0.3,0.6-0.5,0.8-0.7c0.5-0.4-0.2-0.3-0.2-0.3
		s-11.5,3-13,3.4c-1.5,0.3-2.5,1.3-2.5,1.3l-4.6,3.6c-3.5-1.1-5.3,0.3-5.3,0.3l-9.5,6.4c0,0-9.9,7.6-18.2,14.4
		c1.3,11.7,8,21.8,17.6,27.8c1-3.7,2-7.1,3.1-10.3C-53.7-52.5-48.6-59-46.2-62c2.3-2.8,2.9-3,4.2-3.5c0.8-0.3,3.1-1,3.1-1
		s1.1-0.4,2.8-1l3.3-5.1C-37.1-72.5-41.3-72.4-41.9-72.3z"/>
	<path class="st2" d="M-24-72c2.5-0.9,0.5-0.8,0.5-0.8s-3.3,0-7.2,0.1l1.6,2.5C-26.8-70.9-24.8-71.7-24-72z"/>
	<circle class="st0" cx="-48.5" cy="-72.7" r="1.8"/>
	<circle class="st2" cx="-48.5" cy="-72.7" r="0.6"/>
</g>
<rect x="-82.5" class="st3" width="331" height="85"/>
<g>
	<path class="st2" d="M40,49.7v26.5H25.5V49.6l-22.9-39h15.1l15.2,26.3L48,10.6h15.1L40,49.7z"/>
	<path class="st2" d="M136,25.6l-16.5,50.6h-11L97,50L85.7,76.2h-11L58,25.6h13.9l10,30.2L95,25.9h3.9l13.6,29.9l9.9-30.3H136z"/>
	<path class="st2" d="M186.8,50.7c0,1.3-0.1,2.7-0.3,4h-38.3c1.2,6.9,5.7,10.7,12.4,10.7c4.8,0,8.7-2.2,10.7-5.9h14.4
		c-3.7,11-13.4,18.1-25.1,18.1c-14.9,0-26.3-11.6-26.3-26.7c0-15.2,11.2-26.7,26.3-26.7C176.2,24.2,186.8,36.1,186.8,50.7
		L186.8,50.7z M148.6,45.4h24.5c-1.9-6.2-6.4-9.5-12.5-9.5C154.5,35.8,150.2,39.4,148.6,45.4z"/>
	<path class="st2" d="M246.1,50.9c0,15.3-11.2,26.7-26.6,26.7c-6.1,0-11.6-2.1-15.8-5.7l-1.6,4.2h-10.1V7.4h13.7v21
		c3.9-2.7,8.6-4.2,13.9-4.2C234.9,24.2,246.1,35.6,246.1,50.9z M218.3,64.7c7.9,0,13.8-5.9,13.8-13.8c0-7.9-5.8-13.9-13.8-13.9
		s-13.8,5.9-13.8,13.9C204.5,58.7,210.4,64.7,218.3,64.7L218.3,64.7z"/>
</g>
</svg>
