<?xml version="1.0" encoding="utf-8"?>
<!-- Generator: Adobe Illustrator 22.0.0, SVG Export Plug-In . SVG Version: 6.00 Build 0)  -->
<svg version="1.1" id="Capa_1" xmlns="http://www.w3.org/2000/svg" xmlns:xlink="http://www.w3.org/1999/xlink" x="0px" y="0px"
	 viewBox="0 0 252.5 85" style="enable-background:new 0 0 252.5 85;" xml:space="preserve">
<style type="text/css">
	.st0{display:none;}
	.st1{display:inline;fill:url(#SVGID_1_);}
	.st2{display:inline;fill:#FFFFFF;}
	.st3{display:inline;fill:#130A17;}
	.st4{display:none;fill:#130A17;}
	.st5{fill:#FFFFFF;}
	.st6{fill:#130A17;}
</style>
<g class="st0">
	
		<linearGradient id="SVGID_1_" gradientUnits="userSpaceOnUse" x1="-75.4" y1="146.45" x2="-0.4" y2="146.45" gradientTransform="matrix(1 0 0 -1 0 86)">
		<stop  offset="0" style="stop-color:#391E45"/>
		<stop  offset="1" style="stop-color:#130A17"/>
	</linearGradient>
	<path class="st1" d="M-37.9-98c-20.7,0-37.5,16.8-37.5,37.5c0,1.4,0.1,2.8,0.2,4.1C-66.8-63.1-57-70.8-57-70.8l9.5-6.4
		c0,0,1.8-1.4,5.3-0.3l4.6-3.6c0,0,1-0.9,2.5-1.3c1.5-0.3,13-3.4,13-3.4s0.7-0.2,0.2,0.3c-0.2,0.1-0.4,0.4-0.8,0.7
		C-24.4-83.4-37-73.4-37-73.4s-2.3,1.3-0.9,1.1c1.3-0.2,18.5-0.4,18.5-0.4s2-0.1-0.5,0.8s-15,5.5-15,5.5s-2.3,0.7-3.1,1
		c-1.3,0.4-2,0.7-4.2,3.5c-2.4,2.9-7.4,9.5-12.3,23.1c-1.1,3.2-2.1,6.7-3.1,10.3c5.7,3.5,12.5,5.6,19.7,5.6
		c20.7,0,37.5-16.8,37.5-37.5S-17.2-98-37.9-98z"/>
	<path class="st2" d="M-37.9-72.3c-1.3,0.2,0.9-1.1,0.9-1.1s12.5-10,14.3-11.4c0.4-0.3,0.6-0.5,0.8-0.7c0.5-0.4-0.2-0.3-0.2-0.3
		s-11.5,3-13,3.4c-1.5,0.3-2.5,1.3-2.5,1.3l-4.6,3.6c-3.5-1.1-5.3,0.3-5.3,0.3l-9.5,6.4c0,0-9.9,7.6-18.2,14.4
		c1.3,11.7,8,21.8,17.6,27.8c1-3.7,2-7.1,3.1-10.3C-49.7-52.5-44.6-59-42.2-62c2.3-2.8,2.9-3,4.2-3.5c0.8-0.3,3.1-1,3.1-1
		s1.1-0.4,2.8-1l3.3-5.1C-33.1-72.5-37.3-72.4-37.9-72.3z"/>
	<path class="st2" d="M-20-72c2.5-0.9,0.5-0.8,0.5-0.8s-3.3,0-7.2,0.1l1.6,2.5C-22.8-70.9-20.8-71.7-20-72z"/>
	<circle class="st3" cx="-44.5" cy="-72.7" r="1.8"/>
	<circle class="st2" cx="-44.5" cy="-72.7" r="0.6"/>
</g>
<rect x="-78.5" class="st4" width="331" height="85"/>
<g>
	<path class="st5" d="M40.3,49.7v26.5H25.7V49.6l-22.9-39h15.1l15.2,26.3l15.2-26.3h15.1L40.3,49.7z"/>
	<path class="st5" d="M136.3,25.6l-16.5,50.6h-11L97.2,50L86,76.2H75L58.2,25.6h13.9l10,30.2L95.3,26h3.9l13.6,29.9l9.9-30.3
		C122.7,25.6,136.3,25.6,136.3,25.6z"/>
	<path class="st5" d="M187.1,50.7c0,1.3-0.1,2.7-0.3,4h-38.3c1.2,6.9,5.7,10.7,12.4,10.7c4.8,0,8.7-2.2,10.7-5.9H186
		c-3.7,11-13.4,18.1-25.1,18.1c-14.9,0-26.3-11.6-26.3-26.7c0-15.2,11.2-26.7,26.3-26.7C176.4,24.2,187.1,36.1,187.1,50.7
		L187.1,50.7z M148.9,45.4h24.5c-1.9-6.2-6.4-9.5-12.5-9.5C154.8,35.8,150.5,39.4,148.9,45.4z"/>
	<path class="st5" d="M246.3,50.9c0,15.3-11.2,26.7-26.6,26.7c-6.1,0-11.6-2.1-15.8-5.7l-1.6,4.2h-10.1V7.4h13.7v21
		c3.9-2.7,8.6-4.2,13.9-4.2C235.1,24.2,246.3,35.6,246.3,50.9z M218.6,64.7c7.9,0,13.8-5.9,13.8-13.8S226.6,37,218.6,37
		s-13.8,5.9-13.8,13.9C204.8,58.7,210.6,64.7,218.6,64.7L218.6,64.7z"/>
</g>
<g>
	<path class="st5" d="M-36.3,21c-11.9,0-21.5,9.6-21.5,21.5S-48.2,64-36.3,64s21.5-9.6,21.5-21.5S-24.4,21-36.3,21z M-36.3,57.5
		c-8.3,0-15.1-6.7-15.1-15s6.7-15,15.1-15s15,6.7,15,15S-28,57.5-36.3,57.5z"/>
	<rect x="-72.3" y="39" class="st5" width="15" height="7"/>
	<rect x="-15.2" y="39" class="st5" width="15" height="7"/>
</g>
<g>
	<g>
		<path class="st6" d="M39.7-53.3v26.5H25.2v-26.6l-22.9-39h15.1l15.2,26.3l15.2-26.3h15.1L39.7-53.3z"/>
		<path class="st6" d="M135.7-77.4l-16.5,50.6h-11L96.7-53L85.5-26.8h-11L57.7-77.4h13.9l10,30.2L94.8-77h3.9l13.6,29.9l9.9-30.3
			C122.2-77.4,135.7-77.4,135.7-77.4z"/>
		<path class="st6" d="M186.6-52.3c0,1.3-0.1,2.7-0.3,4H148c1.2,6.9,5.7,10.7,12.4,10.7c4.8,0,8.7-2.2,10.7-5.9h14.4
			c-3.7,11-13.4,18.1-25.1,18.1c-14.9,0-26.3-11.6-26.3-26.7c0-15.2,11.2-26.7,26.3-26.7C175.9-78.8,186.6-66.9,186.6-52.3
			L186.6-52.3z M148.4-57.6h24.5c-1.9-6.2-6.4-9.5-12.5-9.5C154.3-67.2,149.9-63.6,148.4-57.6z"/>
		<path class="st6" d="M245.8-52.1c0,15.3-11.2,26.7-26.6,26.7c-6.1,0-11.6-2.1-15.8-5.7l-1.6,4.2h-10.1v-68.9h13.7v21
			c3.9-2.7,8.6-4.2,13.9-4.2C234.6-78.8,245.8-67.4,245.8-52.1z M218.1-38.3c7.9,0,13.8-5.9,13.8-13.8S226.1-66,218.1-66
			s-13.8,5.9-13.8,13.9C204.3-44.3,210.1-38.3,218.1-38.3L218.1-38.3z"/>
	</g>
	<g>
		<path class="st6" d="M-35.7-82c-11.9,0-21.5,9.6-21.5,21.5S-47.6-39-35.7-39s21.5-9.6,21.5-21.5S-23.9-82-35.7-82z M-35.7-45.5
			c-8.3,0-15-6.7-15-15s6.7-15.1,15-15.1s15.1,6.7,15.1,15.1S-27.4-45.5-35.7-45.5z"/>
		<rect x="-71.8" y="-64" class="st6" width="15" height="7"/>
		<rect x="-14.7" y="-64" class="st6" width="15" height="7"/>
	</g>
</g>
</svg>
